<?xml version="1.0" encoding="UTF-8"?>
<svg width="680" height="630" viewBox="0 0 680 630" xmlns="http://www.w3.org/2000/svg">
<title>SEO &amp; ASO 주요 전략 다이어그램</title>
<desc>SEO(검색엔진 최적화)와 ASO(앱스토어 최적화)의 핵심 전략을 비교한 구조 다이어그램</desc>
<style>
  text { font-family: "Apple SD Gothic Neo", "Noto Sans KR", "Malgun Gothic", "Segoe UI", sans-serif; }
</style>

<!-- 흰 배경 -->
<rect width="680" height="630" fill="white"/>

<!-- ==================== SEO PANEL ==================== -->
<rect x="20" y="20" width="305" height="386" rx="12" fill="#EEEDFE" stroke="#AFA9EC" stroke-width="1"/>
<circle cx="39" cy="44" r="5" fill="#534AB7"/>
<text x="50" y="44" dominant-baseline="central" font-size="14" font-weight="500" fill="#3C3489">SEO — 검색엔진 최적화</text>
<text x="39" y="61" dominant-baseline="central" font-size="11" fill="#888780">웹사이트 · 검색결과 상위 노출</text>

<!-- SEO Card 1: On-page SEO -->
<rect x="34" y="74" width="277" height="112" rx="8" fill="white" stroke="#CECBF6" stroke-width="1"/>
<rect x="34" y="74" width="4" height="112" rx="2" fill="#AFA9EC"/>
<text x="50" y="90" dominant-baseline="central" font-size="12" font-weight="500" fill="#534AB7">On-page SEO</text>
<rect x="50" y="104" width="125" height="20" rx="10" fill="#EEEDFE" stroke="#CECBF6" stroke-width="1"/>
<text x="112" y="114" text-anchor="middle" dominant-baseline="central" font-size="11" fill="#3C3489">키워드 리서치</text>
<rect x="181" y="104" width="90" height="20" rx="10" fill="#EEEDFE" stroke="#CECBF6" stroke-width="1"/>
<text x="226" y="114" text-anchor="middle" dominant-baseline="central" font-size="11" fill="#3C3489">메타 태그</text>
<rect x="50" y="129" width="109" height="20" rx="10" fill="#EEEDFE" stroke="#CECBF6" stroke-width="1"/>
<text x="104" y="139" text-anchor="middle" dominant-baseline="central" font-size="11" fill="#3C3489">콘텐츠 품질</text>
<rect x="165" y="129" width="80" height="20" rx="10" fill="#EEEDFE" stroke="#CECBF6" stroke-width="1"/>
<text x="205" y="139" text-anchor="middle" dominant-baseline="central" font-size="11" fill="#3C3489">URL 구조</text>
<rect x="50" y="154" width="90" height="20" rx="10" fill="#EEEDFE" stroke="#CECBF6" stroke-width="1"/>
<text x="95" y="164" text-anchor="middle" dominant-baseline="central" font-size="11" fill="#3C3489">내부 링크</text>
<rect x="146" y="154" width="90" height="20" rx="10" fill="#EEEDFE" stroke="#CECBF6" stroke-width="1"/>
<text x="191" y="164" text-anchor="middle" dominant-baseline="central" font-size="11" fill="#3C3489">이미지 alt</text>

<!-- SEO Card 2: Technical SEO -->
<rect x="34" y="192" width="277" height="112" rx="8" fill="white" stroke="#CECBF6" stroke-width="1"/>
<rect x="34" y="192" width="4" height="112" rx="2" fill="#AFA9EC"/>
<text x="50" y="208" dominant-baseline="central" font-size="12" font-weight="500" fill="#534AB7">Technical SEO</text>
<rect x="50" y="222" width="119" height="20" rx="10" fill="#EEEDFE" stroke="#CECBF6" stroke-width="1"/>
<text x="109" y="232" text-anchor="middle" dominant-baseline="central" font-size="11" fill="#3C3489">Core Web Vitals</text>
<rect x="175" y="222" width="109" height="20" rx="10" fill="#EEEDFE" stroke="#CECBF6" stroke-width="1"/>
<text x="229" y="232" text-anchor="middle" dominant-baseline="central" font-size="11" fill="#3C3489">모바일 최적화</text>
<rect x="50" y="247" width="109" height="20" rx="10" fill="#EEEDFE" stroke="#CECBF6" stroke-width="1"/>
<text x="104" y="257" text-anchor="middle" dominant-baseline="central" font-size="11" fill="#3C3489">Schema 마크업</text>
<rect x="165" y="247" width="74" height="20" rx="10" fill="#EEEDFE" stroke="#CECBF6" stroke-width="1"/>
<text x="202" y="257" text-anchor="middle" dominant-baseline="central" font-size="11" fill="#3C3489">사이트맵</text>
<rect x="50" y="272" width="104" height="20" rx="10" fill="#EEEDFE" stroke="#CECBF6" stroke-width="1"/>
<text x="102" y="282" text-anchor="middle" dominant-baseline="central" font-size="11" fill="#3C3489">크롤링 설정</text>

<!-- SEO Card 3: Off-page SEO -->
<rect x="34" y="310" width="277" height="86" rx="8" fill="white" stroke="#CECBF6" stroke-width="1"/>
<rect x="34" y="310" width="4" height="86" rx="2" fill="#AFA9EC"/>
<text x="50" y="326" dominant-baseline="central" font-size="12" font-weight="500" fill="#534AB7">Off-page SEO</text>
<rect x="50" y="340" width="104" height="20" rx="10" fill="#EEEDFE" stroke="#CECBF6" stroke-width="1"/>
<text x="102" y="350" text-anchor="middle" dominant-baseline="central" font-size="11" fill="#3C3489">백링크 구축</text>
<rect x="160" y="340" width="63" height="20" rx="10" fill="#EEEDFE" stroke="#CECBF6" stroke-width="1"/>
<text x="191" y="350" text-anchor="middle" dominant-baseline="central" font-size="11" fill="#3C3489">E-E-A-T</text>
<rect x="50" y="365" width="90" height="20" rx="10" fill="#EEEDFE" stroke="#CECBF6" stroke-width="1"/>
<text x="95" y="375" text-anchor="middle" dominant-baseline="central" font-size="11" fill="#3C3489">소셜 시그널</text>
<rect x="146" y="365" width="115" height="20" rx="10" fill="#EEEDFE" stroke="#CECBF6" stroke-width="1"/>
<text x="203" y="375" text-anchor="middle" dominant-baseline="central" font-size="11" fill="#3C3489">브랜드 신뢰도</text>

<!-- ==================== ASO PANEL ==================== -->
<rect x="355" y="20" width="305" height="386" rx="12" fill="#E1F5EE" stroke="#5DCAA5" stroke-width="1"/>
<circle cx="374" cy="44" r="5" fill="#0F6E56"/>
<text x="385" y="44" dominant-baseline="central" font-size="14" font-weight="500" fill="#085041">ASO — 앱스토어 최적화</text>
<text x="374" y="61" dominant-baseline="central" font-size="11" fill="#888780">앱 노출 순위 · 다운로드 전환율</text>

<!-- ASO Card 1: 메타데이터 최적화 -->
<rect x="369" y="74" width="277" height="112" rx="8" fill="white" stroke="#9FE1CB" stroke-width="1"/>
<rect x="369" y="74" width="4" height="112" rx="2" fill="#5DCAA5"/>
<text x="385" y="90" dominant-baseline="central" font-size="12" font-weight="500" fill="#0F6E56">메타데이터 최적화</text>
<rect x="385" y="104" width="85" height="20" rx="10" fill="#E1F5EE" stroke="#9FE1CB" stroke-width="1"/>
<text x="427" y="114" text-anchor="middle" dominant-baseline="central" font-size="11" fill="#085041">앱 이름</text>
<rect x="476" y="104" width="68" height="20" rx="10" fill="#E1F5EE" stroke="#9FE1CB" stroke-width="1"/>
<text x="510" y="114" text-anchor="middle" dominant-baseline="central" font-size="11" fill="#085041">부제목</text>
<rect x="385" y="129" width="104" height="20" rx="10" fill="#E1F5EE" stroke="#9FE1CB" stroke-width="1"/>
<text x="437" y="139" text-anchor="middle" dominant-baseline="central" font-size="11" fill="#085041">키워드 필드</text>
<rect x="495" y="129" width="89" height="20" rx="10" fill="#E1F5EE" stroke="#9FE1CB" stroke-width="1"/>
<text x="539" y="139" text-anchor="middle" dominant-baseline="central" font-size="11" fill="#085041">앱 설명문</text>
<rect x="385" y="154" width="74" height="20" rx="10" fill="#E1F5EE" stroke="#9FE1CB" stroke-width="1"/>
<text x="422" y="164" text-anchor="middle" dominant-baseline="central" font-size="11" fill="#085041">카테고리</text>

<!-- ASO Card 2: 시각적 최적화 -->
<rect x="369" y="192" width="277" height="112" rx="8" fill="white" stroke="#9FE1CB" stroke-width="1"/>
<rect x="369" y="192" width="4" height="112" rx="2" fill="#5DCAA5"/>
<text x="385" y="208" dominant-baseline="central" font-size="12" font-weight="500" fill="#0F6E56">시각적 최적화</text>
<rect x="385" y="222" width="85" height="20" rx="10" fill="#E1F5EE" stroke="#9FE1CB" stroke-width="1"/>
<text x="427" y="232" text-anchor="middle" dominant-baseline="central" font-size="11" fill="#085041">앱 아이콘</text>
<rect x="476" y="222" width="74" height="20" rx="10" fill="#E1F5EE" stroke="#9FE1CB" stroke-width="1"/>
<text x="513" y="232" text-anchor="middle" dominant-baseline="central" font-size="11" fill="#085041">스크린샷</text>
<rect x="385" y="247" width="104" height="20" rx="10" fill="#E1F5EE" stroke="#9FE1CB" stroke-width="1"/>
<text x="437" y="257" text-anchor="middle" dominant-baseline="central" font-size="11" fill="#085041">프리뷰 영상</text>
<rect x="495" y="247" width="119" height="20" rx="10" fill="#E1F5EE" stroke="#9FE1CB" stroke-width="1"/>
<text x="554" y="257" text-anchor="middle" dominant-baseline="central" font-size="11" fill="#085041">피처드 그래픽</text>

<!-- ASO Card 3: 사용자 신호 최적화 -->
<rect x="369" y="310" width="277" height="86" rx="8" fill="white" stroke="#9FE1CB" stroke-width="1"/>
<rect x="369" y="310" width="4" height="86" rx="2" fill="#5DCAA5"/>
<text x="385" y="326" dominant-baseline="central" font-size="12" font-weight="500" fill="#0F6E56">사용자 신호 최적화</text>
<rect x="385" y="340" width="95" height="20" rx="10" fill="#E1F5EE" stroke="#9FE1CB" stroke-width="1"/>
<text x="432" y="350" text-anchor="middle" dominant-baseline="central" font-size="11" fill="#085041">평점 &amp; 리뷰</text>
<rect x="486" y="340" width="99" height="20" rx="10" fill="#E1F5EE" stroke="#9FE1CB" stroke-width="1"/>
<text x="535" y="350" text-anchor="middle" dominant-baseline="central" font-size="11" fill="#085041">전환율(CVR)</text>
<rect x="385" y="365" width="59" height="20" rx="10" fill="#E1F5EE" stroke="#9FE1CB" stroke-width="1"/>
<text x="414" y="375" text-anchor="middle" dominant-baseline="central" font-size="11" fill="#085041">유지율</text>
<rect x="450" y="365" width="59" height="20" rx="10" fill="#E1F5EE" stroke="#9FE1CB" stroke-width="1"/>
<text x="479" y="375" text-anchor="middle" dominant-baseline="central" font-size="11" fill="#085041">참여도</text>
<rect x="515" y="365" width="119" height="20" rx="10" fill="#E1F5EE" stroke="#9FE1CB" stroke-width="1"/>
<text x="574" y="375" text-anchor="middle" dominant-baseline="central" font-size="11" fill="#085041">업데이트 주기</text>

<!-- ==================== DIVIDER ==================== -->
<line x1="20" y1="418" x2="285" y2="418" stroke="#B4B2A9" stroke-width="1"/>
<text x="340" y="418" text-anchor="middle" dominant-baseline="central" font-size="11" fill="#888780">공통 핵심 요소</text>
<line x1="395" y1="418" x2="660" y2="418" stroke="#B4B2A9" stroke-width="1"/>

<!-- ==================== SHARED SECTION ==================== -->
<rect x="20" y="430" width="640" height="100" rx="12" fill="#F1EFE8" stroke="#B4B2A9" stroke-width="1"/>
<rect x="34" y="446" width="3" height="14" rx="2" fill="#888780"/>
<text x="44" y="453" dominant-baseline="central" font-size="12" font-weight="500" fill="#2C2C2A">SEO &amp; ASO 공통 전략</text>

<!-- Shared tag row 1 -->
<rect x="34" y="467" width="90" height="20" rx="10" fill="white" stroke="#B4B2A9" stroke-width="1"/>
<text x="79" y="477" text-anchor="middle" dominant-baseline="central" font-size="11" fill="#5F5E5A">A/B 테스트</text>
<rect x="130" y="467" width="100" height="20" rx="10" fill="white" stroke="#B4B2A9" stroke-width="1"/>
<text x="180" y="477" text-anchor="middle" dominant-baseline="central" font-size="11" fill="#5F5E5A">경쟁사 분석</text>
<rect x="236" y="467" width="168" height="20" rx="10" fill="white" stroke="#B4B2A9" stroke-width="1"/>
<text x="320" y="477" text-anchor="middle" dominant-baseline="central" font-size="11" fill="#5F5E5A">데이터 분석 &amp; 모니터링</text>
<rect x="410" y="467" width="115" height="20" rx="10" fill="white" stroke="#B4B2A9" stroke-width="1"/>
<text x="467" y="477" text-anchor="middle" dominant-baseline="central" font-size="11" fill="#5F5E5A">사용자 경험(UX)</text>

<!-- Shared tag row 2 -->
<rect x="34" y="492" width="120" height="20" rx="10" fill="white" stroke="#B4B2A9" stroke-width="1"/>
<text x="94" y="502" text-anchor="middle" dominant-baseline="central" font-size="11" fill="#5F5E5A">지속적 업데이트</text>
<rect x="160" y="492" width="155" height="20" rx="10" fill="white" stroke="#B4B2A9" stroke-width="1"/>
<text x="237" y="502" text-anchor="middle" dominant-baseline="central" font-size="11" fill="#5F5E5A">현지화(Localization)</text>
<rect x="321" y="492" width="155" height="20" rx="10" fill="white" stroke="#B4B2A9" stroke-width="1"/>
<text x="398" y="502" text-anchor="middle" dominant-baseline="central" font-size="11" fill="#5F5E5A">전환율 최적화(CRO)</text>

<!-- ==================== ARROWS ==================== -->
<line x1="172" y1="532" x2="172" y2="548" stroke="#B4B2A9" stroke-width="1"/>
<polygon points="167,548 177,548 172,556" fill="#B4B2A9"/>
<line x1="507" y1="532" x2="507" y2="548" stroke="#B4B2A9" stroke-width="1"/>
<polygon points="502,548 512,548 507,556" fill="#B4B2A9"/>

<!-- ==================== GOALS ==================== -->
<!-- SEO Goal -->
<rect x="20" y="558" width="305" height="54" rx="10" fill="#534AB7" stroke="#7F77DD" stroke-width="1"/>
<text x="172" y="576" text-anchor="middle" dominant-baseline="central" font-size="11" font-weight="500" fill="#CECBF6">SEO 목표</text>
<text x="172" y="596" text-anchor="middle" dominant-baseline="central" font-size="12" font-weight="500" fill="#EEEDFE">검색 순위 상승 &amp; 유기적 트래픽 증가</text>

<!-- ASO Goal -->
<rect x="355" y="558" width="305" height="54" rx="10" fill="#0F6E56" stroke="#1D9E75" stroke-width="1"/>
<text x="507" y="576" text-anchor="middle" dominant-baseline="central" font-size="11" font-weight="500" fill="#9FE1CB">ASO 목표</text>
<text x="507" y="596" text-anchor="middle" dominant-baseline="central" font-size="12" font-weight="500" fill="#E1F5EE">앱스토어 노출 &amp; 다운로드 전환율 향상</text>

</svg>
